<?xml version="1.0" encoding="utf-8"?>
<!-- Generator: Adobe Illustrator 26.0.1, SVG Export Plug-In . SVG Version: 6.00 Build 0)  -->
<svg version="1.1" id="Calque_1" xmlns="http://www.w3.org/2000/svg" xmlns:xlink="http://www.w3.org/1999/xlink" x="0px" y="0px"
	 viewBox="0 0 460 192" style="enable-background:new 0 0 460 192;" xml:space="preserve">
<style type="text/css">
	.st0{fill:#014882;}
	.st1{fill:#F49433;}
</style>
<path class="st0" d="M127.1,118.8h-8.9V90.2l-15.7,27.1c-0.4,0.7-0.9,1.2-1.6,1.6c-0.7,0.4-1.4,0.5-2.2,0.5c-0.8,0-1.5-0.2-2.2-0.5
	c-0.7-0.4-1.2-0.9-1.6-1.6L79,90.2v28.6h-8.9V74.6c0-1,0.3-1.9,0.9-2.7c0.6-0.8,1.4-1.3,2.4-1.6c0.5-0.1,1-0.1,1.4-0.1
	c0.5,0,0.9,0.1,1.4,0.3c0.5,0.2,0.9,0.4,1.2,0.7c0.4,0.3,0.7,0.6,0.9,1.1l20.2,34.4l20.2-34.4c0.5-0.8,1.2-1.4,2.2-1.8
	c0.9-0.4,1.9-0.4,2.9-0.2c1,0.3,1.7,0.8,2.4,1.6c0.6,0.8,0.9,1.7,0.9,2.7V118.8z"/>
<path class="st0" d="M66.9,104.7c0,1.7-0.2,3.3-0.7,4.6c-0.4,1.4-1,2.6-1.7,3.6c-0.7,1-1.6,1.9-2.6,2.7c-1,0.7-2,1.3-3,1.8
	c-1,0.5-2.1,0.8-3.2,1c-1.1,0.2-2.1,0.3-3,0.3H18.4v-8.7h34.2c1.7,0,3-0.5,4-1.5c1-1,1.4-2.3,1.4-3.9c0-0.8-0.1-1.5-0.4-2.2
	c-0.3-0.7-0.6-1.2-1.1-1.7c-0.5-0.5-1-0.9-1.7-1.1c-0.7-0.3-1.4-0.4-2.2-0.4H32.2c-1.4,0-3-0.2-4.6-0.7C25.9,98,24.4,97.1,23,96
	c-1.4-1.1-2.6-2.6-3.6-4.4c-0.9-1.8-1.4-4-1.4-6.6c0-2.6,0.5-4.8,1.4-6.6c1-1.8,2.1-3.3,3.6-4.4c1.4-1.1,3-2,4.6-2.4
	c1.7-0.5,3.2-0.8,4.6-0.8h25.4l4.8,8.7H32.2c-1.7,0-3,0.5-4,1.5c-0.9,1-1.4,2.3-1.4,4c0,1.7,0.5,3,1.4,4c1,1,2.3,1.4,4,1.4h20.5
	c1,0,2,0.2,3,0.4c1.1,0.2,2.1,0.6,3.2,1.1c1.1,0.5,2.1,1.1,3,1.9c1,0.7,1.8,1.6,2.5,2.7c0.8,1,1.3,2.3,1.8,3.6
	C66.7,101.4,66.9,103,66.9,104.7z"/>
<path class="st0" d="M310.5,104.6c0,1.7-0.2,3.3-0.7,4.6c-0.4,1.4-1,2.6-1.7,3.6c-0.7,1-1.6,1.9-2.6,2.7c-1,0.7-2,1.3-3,1.8
	c-1,0.5-2.1,0.8-3.2,1c-1.1,0.2-2.1,0.3-3,0.3h-31.3l2.9-8.7h28.4c1.7,0,3-0.5,4-1.5c1-1,1.4-2.3,1.4-3.9c0-0.8-0.1-1.5-0.4-2.2
	c-0.3-0.7-0.6-1.2-1.1-1.7c-0.5-0.5-1-0.9-1.7-1.1c-0.7-0.3-1.4-0.4-2.2-0.4h-20.4c-1.4,0-3-0.2-4.6-0.7c-1.7-0.5-3.2-1.3-4.6-2.4
	c-1.4-1.1-2.6-2.6-3.5-4.4c-0.9-1.8-1.4-4-1.4-6.6c0-2.6,0.5-4.8,1.4-6.6c1-1.8,2.1-3.3,3.5-4.4c1.4-1.1,3-2,4.6-2.4
	c1.7-0.5,3.2-0.8,4.6-0.8h25.4l4.8,8.7h-30.2c-1.7,0-3,0.5-4,1.5c-0.9,1-1.4,2.3-1.4,4c0,1.7,0.5,3,1.4,4c1,1,2.3,1.4,4,1.4h20.5
	c1,0,2,0.2,3,0.4c1.1,0.2,2.1,0.6,3.2,1.1c1.1,0.5,2.1,1.1,3,1.9c1,0.7,1.8,1.6,2.5,2.7c0.8,1,1.3,2.3,1.8,3.6
	C310.3,101.3,310.5,102.9,310.5,104.6z"/>
<path class="st0" d="M310.5,104.6c0,1.7-0.2,3.3-0.7,4.6c-0.4,1.4-1,2.6-1.7,3.6c-0.7,1-1.6,1.9-2.6,2.7c-1,0.7-2,1.3-3,1.8
	c-1,0.5-2.1,0.8-3.2,1c-1.1,0.2-2.1,0.3-3,0.3h-31.3l2.9-8.7h28.4c1.7,0,3-0.5,4-1.5c1-1,1.4-2.3,1.4-3.9c0-0.8-0.1-1.5-0.4-2.2
	c-0.3-0.7-0.6-1.2-1.1-1.7c-0.5-0.5-1-0.9-1.7-1.1c-0.7-0.3-1.4-0.4-2.2-0.4h-20.4c-1.4,0-3-0.2-4.6-0.7c-1.7-0.5-3.2-1.3-4.6-2.4
	c-1.4-1.1-2.6-2.6-3.5-4.4c-0.9-1.8-1.4-4-1.4-6.6c0-2.6,0.5-4.8,1.4-6.6c1-1.8,2.1-3.3,3.5-4.4c1.4-1.1,3-2,4.6-2.4
	c1.7-0.5,3.2-0.8,4.6-0.8h25.4l4.8,8.7h-30.2c-1.7,0-3,0.5-4,1.5c-0.9,1-1.4,2.3-1.4,4c0,1.7,0.5,3,1.4,4c1,1,2.3,1.4,4,1.4h20.5
	c1,0,2,0.2,3,0.4c1.1,0.2,2.1,0.6,3.2,1.1c1.1,0.5,2.1,1.1,3,1.9c1,0.7,1.8,1.6,2.5,2.7c0.8,1,1.3,2.3,1.8,3.6
	C310.3,101.3,310.5,102.9,310.5,104.6z"/>
<path class="st0" d="M182.9,118.8H145c-0.8,0-1.7-0.1-2.7-0.3c-0.9-0.2-1.9-0.5-2.8-0.9c-0.9-0.4-1.8-0.9-2.6-1.5
	c-0.8-0.6-1.6-1.4-2.3-2.3c-0.6-0.9-1.1-2-1.5-3.1c-0.4-1.2-0.6-2.6-0.6-4V83.1c0-0.8,0.1-1.7,0.3-2.6c0.2-0.9,0.5-1.8,0.9-2.7
	c0.4-0.9,0.9-1.8,1.6-2.6c0.7-0.8,1.4-1.5,2.4-2.2c0.9-0.6,2-1.2,3.2-1.5c1.2-0.4,2.6-0.6,4.1-0.6h26.2l5.8,8.7h-32
	c-1.2,0-2,0.3-2.7,0.9c-0.6,0.6-0.9,1.5-0.9,2.7v23.5c0,1.1,0.3,2,0.9,2.6c0.6,0.6,1.5,0.9,2.7,0.9h41.1L182.9,118.8z"/>
<path class="st0" d="M256.8,118.8h-37.8c-0.8,0-1.7-0.1-2.7-0.3c-0.9-0.2-1.9-0.5-2.8-0.9c-0.9-0.4-1.8-0.9-2.6-1.5
	c-0.8-0.6-1.6-1.4-2.3-2.3c-0.6-0.9-1.1-2-1.5-3.1c-0.4-1.2-0.6-2.6-0.6-4V83.1c0-0.8,0.1-1.7,0.3-2.6c0.2-0.9,0.5-1.8,0.9-2.7
	c0.4-0.9,0.9-1.8,1.6-2.6c0.7-0.8,1.4-1.5,2.4-2.2c0.9-0.6,2-1.2,3.2-1.5c1.2-0.4,2.6-0.6,4.1-0.6h26.2l5.8,8.7h-32
	c-1.2,0-2,0.3-2.7,0.9c-0.6,0.6-0.9,1.5-0.9,2.7v23.5c0,1.1,0.3,2,0.9,2.6c0.6,0.6,1.5,0.9,2.7,0.9h41.1L256.8,118.8z"/>
<path class="st0" d="M256.8,118.8h-37.8c-0.8,0-1.7-0.1-2.7-0.3c-0.9-0.2-1.9-0.5-2.8-0.9c-0.9-0.4-1.8-0.9-2.6-1.5
	c-0.8-0.6-1.6-1.4-2.3-2.3c-0.6-0.9-1.1-2-1.5-3.1c-0.4-1.2-0.6-2.6-0.6-4V83.1c0-0.8,0.1-1.7,0.3-2.6c0.2-0.9,0.5-1.8,0.9-2.7
	c0.4-0.9,0.9-1.8,1.6-2.6c0.7-0.8,1.4-1.5,2.4-2.2c0.9-0.6,2-1.2,3.2-1.5c1.2-0.4,2.6-0.6,4.1-0.6h26.2l5.8,8.7h-32
	c-1.2,0-2,0.3-2.7,0.9c-0.6,0.6-0.9,1.5-0.9,2.7v23.5c0,1.1,0.3,2,0.9,2.6c0.6,0.6,1.5,0.9,2.7,0.9h41.1L256.8,118.8z"/>
<path class="st0" d="M354,99h-33.7v-8.9H354V99z M354.8,118.9h-28.7c-1.2,0-2.6-0.2-4-0.6c-1.4-0.4-2.8-1.1-4-2.1
	c-1.2-1-2.3-2.3-3.1-3.8c-0.8-1.6-1.2-3.5-1.2-5.8V74.6c0-0.6,0.1-1.2,0.3-1.7c0.2-0.5,0.5-1,0.9-1.4c0.4-0.4,0.9-0.7,1.4-1
	c0.5-0.2,1.1-0.3,1.8-0.3h34.7L358,79h-35.4v27.5c0,1.2,0.3,2,0.9,2.7c0.6,0.6,1.5,0.9,2.7,0.9H358L354.8,118.9z"/>
<path class="st0" d="M28.1,143.9c0-0.7-0.2-1.3-0.7-1.7c-0.5-0.4-1.4-0.8-2.6-1.2c-1.3-0.4-2.3-0.9-3-1.3c-2-1.1-3-2.7-3-4.6
	c0-1,0.3-1.9,0.8-2.7c0.5-0.8,1.3-1.4,2.3-1.8c1-0.4,2.1-0.7,3.4-0.7c1.3,0,2.4,0.2,3.4,0.7c1,0.5,1.7,1.1,2.3,2
	c0.5,0.9,0.8,1.9,0.8,3h-3.6c0-0.8-0.3-1.5-0.8-2c-0.5-0.5-1.2-0.7-2.1-0.7c-0.9,0-1.6,0.2-2.1,0.6c-0.5,0.4-0.7,0.9-0.7,1.6
	c0,0.6,0.3,1.1,0.9,1.5c0.6,0.4,1.4,0.8,2.6,1.1c2.1,0.7,3.6,1.5,4.5,2.4c0.9,1,1.4,2.2,1.4,3.6c0,1.6-0.6,2.9-1.7,3.8
	c-1.2,0.9-2.7,1.4-4.7,1.4c-1.4,0-2.6-0.3-3.7-0.8c-1.1-0.5-2-1.2-2.6-2.1c-0.6-0.9-0.9-2-0.9-3.1h3.6c0,2,1.2,3.1,3.5,3.1
	c0.9,0,1.5-0.2,2-0.5C27.9,145.1,28.1,144.6,28.1,143.9z"/>
<path class="st0" d="M39.4,148.7h-3.6v-18.5h3.6V148.7z"/>
<path class="st0" d="M48.9,130.3l4.5,13.4l4.5-13.4h4.8v18.5h-3.6v-5.1l0.4-8.7l-4.8,13.8h-2.5L47.4,135l0.4,8.7v5.1h-3.6v-18.5
	H48.9z"/>
<path class="st0" d="M70.9,142.2v6.5h-3.6v-18.5h6.9c1.3,0,2.5,0.3,3.5,0.8c1,0.5,1.8,1.2,2.3,2.2c0.5,0.9,0.8,2,0.8,3.2
	c0,1.8-0.6,3.2-1.8,4.3c-1.2,1-2.8,1.6-4.9,1.6H70.9z M70.9,139.1h3.2c1,0,1.7-0.2,2.2-0.7c0.5-0.5,0.8-1.2,0.8-2
	c0-0.9-0.3-1.6-0.8-2.2c-0.5-0.6-1.2-0.8-2.1-0.9h-3.3V139.1z"/>
<path class="st0" d="M88.2,145.7h7.7v3.1H84.6v-18.5h3.6V145.7z"/>
<path class="st0" d="M103.3,148.7h-3.6v-18.5h3.6V148.7z"/>
<path class="st0" d="M118.6,141.2h-7v7.6H108v-18.5h11.5v3.1h-7.8v4.8h7V141.2z"/>
<path class="st0" d="M126.8,148.7h-3.6v-18.5h3.6V148.7z"/>
<path class="st0" d="M142.1,140.7h-7v5h8.2v3.1h-11.8v-18.5h11.8v3.1h-8.2v4.4h7V140.7z"/>
<path class="st0" d="M158,145.7h7.7v3.1h-11.3v-18.5h3.6V145.7z"/>
<path class="st0" d="M179.8,140.7h-7v5h8.2v3.1h-11.8v-18.5h11.8v3.1h-8.2v4.4h7V140.7z"/>
<path class="st0" d="M193.6,143.9c0-0.7-0.2-1.3-0.7-1.7c-0.5-0.4-1.4-0.8-2.6-1.2c-1.3-0.4-2.3-0.9-3-1.3c-2-1.1-3-2.7-3-4.6
	c0-1,0.3-1.9,0.8-2.7c0.5-0.8,1.3-1.4,2.3-1.8c1-0.4,2.1-0.7,3.4-0.7c1.3,0,2.4,0.2,3.4,0.7c1,0.5,1.7,1.1,2.3,2
	c0.5,0.9,0.8,1.9,0.8,3h-3.6c0-0.8-0.3-1.5-0.8-2c-0.5-0.5-1.2-0.7-2.1-0.7c-0.9,0-1.6,0.2-2.1,0.6c-0.5,0.4-0.7,0.9-0.7,1.6
	c0,0.6,0.3,1.1,0.9,1.5c0.6,0.4,1.4,0.8,2.6,1.1c2.1,0.7,3.6,1.5,4.5,2.4c0.9,1,1.4,2.2,1.4,3.6c0,1.6-0.6,2.9-1.7,3.8
	c-1.2,0.9-2.7,1.4-4.7,1.4c-1.4,0-2.6-0.3-3.7-0.8c-1.1-0.5-2-1.2-2.6-2.1c-0.6-0.9-0.9-2-0.9-3.1h3.6c0,2,1.2,3.1,3.5,3.1
	c0.9,0,1.5-0.2,2-0.5C193.4,145.1,193.6,144.6,193.6,143.9z"/>
<path class="st0" d="M213.3,130.3l4.5,13.4l4.5-13.4h4.8v18.5h-3.6v-5.1l0.4-8.7l-4.8,13.8h-2.5l-4.7-13.8l0.4,8.7v5.1h-3.6v-18.5
	H213.3z"/>
<path class="st0" d="M235.5,148.7h-3.6v-18.5h3.6V148.7z"/>
<path class="st0" d="M249.4,143.9c0-0.7-0.2-1.3-0.7-1.7c-0.5-0.4-1.4-0.8-2.6-1.2c-1.3-0.4-2.3-0.9-3-1.3c-2-1.1-3-2.7-3-4.6
	c0-1,0.3-1.9,0.8-2.7c0.5-0.8,1.3-1.4,2.3-1.8c1-0.4,2.1-0.7,3.4-0.7c1.3,0,2.4,0.2,3.4,0.7c1,0.5,1.7,1.1,2.3,2
	c0.5,0.9,0.8,1.9,0.8,3h-3.6c0-0.8-0.3-1.5-0.8-2c-0.5-0.5-1.2-0.7-2.1-0.7c-0.9,0-1.6,0.2-2.1,0.6c-0.5,0.4-0.7,0.9-0.7,1.6
	c0,0.6,0.3,1.1,0.9,1.5c0.6,0.4,1.4,0.8,2.6,1.1c2.1,0.7,3.6,1.5,4.5,2.4c0.9,1,1.4,2.2,1.4,3.6c0,1.6-0.6,2.9-1.7,3.8
	c-1.2,0.9-2.7,1.4-4.7,1.4c-1.4,0-2.6-0.3-3.7-0.8c-1.1-0.5-2-1.2-2.6-2.1c-0.6-0.9-0.9-2-0.9-3.1h3.6c0,2,1.2,3.1,3.5,3.1
	c0.9,0,1.5-0.2,2-0.5C249.2,145.1,249.4,144.6,249.4,143.9z"/>
<path class="st0" d="M266,143.9c0-0.7-0.2-1.3-0.7-1.7c-0.5-0.4-1.4-0.8-2.6-1.2c-1.3-0.4-2.3-0.9-3-1.3c-2-1.1-3-2.7-3-4.6
	c0-1,0.3-1.9,0.8-2.7c0.5-0.8,1.3-1.4,2.3-1.8c1-0.4,2.1-0.7,3.4-0.7c1.3,0,2.4,0.2,3.4,0.7c1,0.5,1.7,1.1,2.3,2
	c0.5,0.9,0.8,1.9,0.8,3H266c0-0.8-0.3-1.5-0.8-2c-0.5-0.5-1.2-0.7-2.1-0.7c-0.9,0-1.6,0.2-2.1,0.6c-0.5,0.4-0.7,0.9-0.7,1.6
	c0,0.6,0.3,1.1,0.9,1.5c0.6,0.4,1.4,0.8,2.6,1.1c2.1,0.7,3.6,1.5,4.5,2.4c0.9,1,1.4,2.2,1.4,3.6c0,1.6-0.6,2.9-1.7,3.8
	c-1.2,0.9-2.7,1.4-4.7,1.4c-1.4,0-2.6-0.3-3.7-0.8c-1.1-0.5-2-1.2-2.6-2.1c-0.6-0.9-0.9-2-0.9-3.1h3.6c0,2,1.2,3.1,3.5,3.1
	c0.9,0,1.5-0.2,2-0.5C265.8,145.1,266,144.6,266,143.9z"/>
<path class="st0" d="M277.3,148.7h-3.6v-18.5h3.6V148.7z"/>
<path class="st0" d="M296.6,139.9c0,1.8-0.3,3.4-0.9,4.8c-0.6,1.4-1.5,2.4-2.6,3.2c-1.1,0.7-2.4,1.1-3.9,1.1c-1.5,0-2.8-0.4-3.9-1.1
	c-1.1-0.7-2-1.8-2.7-3.2c-0.6-1.4-0.9-2.9-1-4.7v-0.9c0-1.8,0.3-3.4,0.9-4.8c0.6-1.4,1.5-2.5,2.6-3.2c1.1-0.7,2.5-1.1,3.9-1.1
	c1.5,0,2.8,0.4,3.9,1.1c1.1,0.7,2,1.8,2.6,3.2c0.6,1.4,0.9,3,0.9,4.8V139.9z M292.9,139.1c0-1.9-0.3-3.4-1-4.4
	c-0.7-1-1.6-1.5-2.8-1.5c-1.2,0-2.2,0.5-2.8,1.5c-0.7,1-1,2.4-1,4.4v0.9c0,1.9,0.3,3.4,1,4.4c0.7,1,1.6,1.6,2.9,1.6
	c1.2,0,2.2-0.5,2.8-1.5c0.7-1,1-2.5,1-4.4V139.1z"/>
<path class="st0" d="M314.9,148.7h-3.6l-7.1-12.2v12.2h-3.6v-18.5h3.6l7.1,12.2v-12.2h3.6V148.7z"/>
<path class="st0" d="M328.5,143.9c0-0.7-0.2-1.3-0.7-1.7c-0.5-0.4-1.4-0.8-2.6-1.2c-1.3-0.4-2.3-0.9-3-1.3c-2-1.1-3-2.7-3-4.6
	c0-1,0.3-1.9,0.8-2.7c0.5-0.8,1.3-1.4,2.3-1.8c1-0.4,2.1-0.7,3.4-0.7c1.3,0,2.4,0.2,3.4,0.7c1,0.5,1.7,1.1,2.3,2
	c0.5,0.9,0.8,1.9,0.8,3h-3.6c0-0.8-0.3-1.5-0.8-2c-0.5-0.5-1.2-0.7-2.1-0.7c-0.9,0-1.6,0.2-2.1,0.6c-0.5,0.4-0.7,0.9-0.7,1.6
	c0,0.6,0.3,1.1,0.9,1.5c0.6,0.4,1.4,0.8,2.6,1.1c2.1,0.7,3.6,1.5,4.5,2.4c0.9,1,1.4,2.2,1.4,3.6c0,1.6-0.6,2.9-1.7,3.8
	c-1.2,0.9-2.7,1.4-4.7,1.4c-1.4,0-2.6-0.3-3.7-0.8c-1.1-0.5-2-1.2-2.6-2.1c-0.6-0.9-0.9-2-0.9-3.1h3.6c0,2,1.2,3.1,3.5,3.1
	c0.9,0,1.5-0.2,2-0.5C328.3,145.1,328.5,144.6,328.5,143.9z"/>
<path class="st0" d="M343.6,148.7v-18.5h5.4c1.5,0,2.9,0.4,4.1,1.1c1.2,0.7,2.2,1.8,2.9,3.1c0.7,1.3,1,2.9,1,4.6v0.9
	c0,1.7-0.3,3.2-1,4.6c-0.7,1.3-1.6,2.4-2.8,3.1c-1.2,0.7-2.6,1.1-4.2,1.1H343.6z M347.2,133.3v12.3h1.8c1.4,0,2.5-0.5,3.3-1.5
	c0.8-1,1.1-2.4,1.1-4.2v-1c0-1.9-0.4-3.3-1.1-4.3c-0.7-1-1.8-1.5-3.3-1.5H347.2z"/>
<path class="st0" d="M374.4,130.3v12.2c0,2-0.6,3.6-1.8,4.8c-1.2,1.2-2.8,1.8-4.9,1.8c-2.1,0-3.7-0.6-4.9-1.7
	c-1.2-1.1-1.8-2.7-1.9-4.7v-12.3h3.6v12.2c0,1.2,0.3,2.1,0.8,2.7c0.6,0.6,1.3,0.8,2.3,0.8c2,0,3.1-1.1,3.1-3.4v-12.3H374.4z"/>
<path class="st0" d="M400.1,142.6c-0.1,2-0.8,3.6-2.1,4.7c-1.3,1.1-2.9,1.7-5,1.7c-2.3,0-4-0.8-5.3-2.4c-1.3-1.6-1.9-3.8-1.9-6.6
	v-1.1c0-1.8,0.3-3.3,0.9-4.7c0.6-1.4,1.4-2.4,2.6-3.1c1.1-0.7,2.4-1.1,3.9-1.1c2,0,3.7,0.6,4.9,1.7c1.2,1.1,2,2.7,2.2,4.8h-3.6
	c-0.1-1.2-0.4-2.1-1-2.6c-0.5-0.5-1.4-0.8-2.5-0.8c-1.2,0-2.1,0.5-2.7,1.4c-0.6,0.9-0.9,2.3-0.9,4.2v1.4c0,2,0.3,3.5,0.9,4.4
	c0.6,0.9,1.5,1.4,2.7,1.4c1.1,0,2-0.3,2.5-0.8c0.6-0.5,0.9-1.4,1-2.5H400.1z"/>
<path class="st0" d="M413,143.9c0-0.7-0.2-1.3-0.7-1.7c-0.5-0.4-1.4-0.8-2.6-1.2c-1.3-0.4-2.3-0.9-3-1.3c-2-1.1-3-2.7-3-4.6
	c0-1,0.3-1.9,0.8-2.7c0.5-0.8,1.3-1.4,2.3-1.8c1-0.4,2.1-0.7,3.4-0.7c1.3,0,2.4,0.2,3.4,0.7c1,0.5,1.7,1.1,2.3,2
	c0.5,0.9,0.8,1.9,0.8,3H413c0-0.8-0.3-1.5-0.8-2c-0.5-0.5-1.2-0.7-2.1-0.7c-0.9,0-1.6,0.2-2.1,0.6c-0.5,0.4-0.7,0.9-0.7,1.6
	c0,0.6,0.3,1.1,0.9,1.5c0.6,0.4,1.4,0.8,2.6,1.1c2.1,0.7,3.6,1.5,4.5,2.4c0.9,1,1.4,2.2,1.4,3.6c0,1.6-0.6,2.9-1.7,3.8
	c-1.2,0.9-2.7,1.4-4.7,1.4c-1.4,0-2.6-0.3-3.7-0.8c-1.1-0.5-2-1.2-2.6-2.1c-0.6-0.9-0.9-2-0.9-3.1h3.6c0,2,1.2,3.1,3.5,3.1
	c0.9,0,1.5-0.2,2-0.5C412.7,145.1,413,144.6,413,143.9z"/>
<path class="st0" d="M431,140.7h-7v5h8.2v3.1h-11.8v-18.5h11.8v3.1h-8.2v4.4h7V140.7z"/>
<rect x="181" y="88.8" class="st0" width="18.1" height="7.2"/>
<g id="layer1">
	<path class="st1" d="M389.2,30c0,0.1-1.2,3.6-2.6,7.7c-4.4,13.2-9.3,28.1-10.8,32.3l-1.4,4.1l-1.6,0.3c-0.9,0.2-2.1,0.4-2.6,0.4
		l-1,0.1l-0.6-0.6c-0.5-0.5-1.5-1.7-2.1-2.7c-0.1-0.2-0.4-0.6-0.7-1c-0.3-0.4-1-1.4-1.6-2.4c-0.6-1-1.7-2.4-2.3-3.3
		c-1.6-2.3-6.2-9.2-8-11.9c-2.6-3.9-3.1-4.8-3.1-4.9c0-0.2,1.4-1.8,3-3.4l1.1-1.2l0.3,0.4c0.3,0.4,3.8,5.2,8.5,11.8
		c3.7,5.1,6.2,8.6,6.4,8.6c0.1,0,0.2-0.2,0.3-0.4c0.2-0.4,1.4-3.9,1.6-4.8c0.1-0.3,0.5-1.7,0.9-3.1c0.4-1.4,1-3.4,1.3-4.3
		c0.8-2.5,1.4-4.6,1.8-5.9c0.2-0.6,0.6-2,0.9-3c1.1-3.8,2.2-7.4,2.6-8.8c0.2-0.5,0.4-1.5,0.6-2.2c0.3-0.9,0.4-1.3,0.6-1.4
		c0.5-0.2,3.9-0.6,6.3-0.7c1,0,1.5-0.1,1.8,0C389.2,29.8,389.3,29.9,389.2,30z"/>
	<path class="st1" d="M394.5,119.3l-4.1,0h-4.1l-0.4-0.6c-0.2-0.3-1.7-2.8-3.3-5.4c-1.6-2.7-3.3-5.5-3.8-6.3c-0.5-0.8-1.3-2-1.8-2.8
		c-1.4-2.2-1.6-2.3-1.9-1.3c-0.1,0.4-0.5,1.5-0.9,2.5c-0.4,1-0.9,2.3-1.1,2.8c-0.2,0.5-0.6,1.5-0.8,2.3c-0.3,0.7-0.7,1.8-0.9,2.5
		c-0.7,2-1.2,3.3-1.4,3.8c-0.1,0.2-0.3,0.7-0.4,1c-0.1,0.3-0.3,0.8-0.4,1l-0.2,0.4l-3.1,0c-1.7,0-3.2-0.1-3.4-0.1
		c-0.2-0.1-0.2-0.3,0.4-2c0.8-2.2,2.7-7.6,3.2-9c0.2-0.5,1-2.9,1.8-5.2c2.6-7.4,3.4-9.7,3.4-9.8c0.1-0.1,3.3-0.3,4.7-0.3l1.1,0
		l3.3,5.1c3.4,5.2,5,7.5,8,12.2c0.9,1.4,2.5,3.8,3.4,5.2c1,1.4,1.9,2.9,2.1,3.3L394.5,119.3z"/>
	<path class="st1" d="M429.3,104.5c-0.6,1-3.2,4.4-3.2,4.4c0,0-3-1.5-6.6-3.3c-13.5-6.8-18.7-9.5-25.7-13
		c-9.7-4.9-10.2-5.2-11.4-6.3c-0.9-0.9-1-1.2-1.3-4.1c-0.3-3.1-0.3-2.9,0.7-3.7c0.9-0.7,6.6-5.4,9.4-7.7c1-0.8,2.7-2.2,3.8-3.1
		c2.8-2.3,9.3-7.7,11.9-9.8c1.2-1,3.2-2.6,4.4-3.7c2.2-1.8,2.9-2.4,9-7.4c1.6-1.3,2.9-2.3,2.9-2.3c0.2,0.1,2.2,2.3,3.2,3.6
		c1.1,1.4,2.7,3.7,3.4,4.9l0.4,0.7l-1.1,0.8c-0.6,0.4-3.2,2.3-5.7,4.2c-5,3.6-5.8,4.2-9.1,6.6c-2.6,1.9-5.7,4.1-8.6,6.3
		c-2.7,1.9-3,2.1-5.1,3.7c-0.9,0.7-2,1.4-2.3,1.7c-0.4,0.3-1.6,1.1-2.7,1.9c-1.1,0.8-2.3,1.7-2.7,1.9c-0.4,0.3-0.8,0.6-1,0.8
		l-0.4,0.3l0.5,0.3c0.5,0.3,3.8,1.8,6.1,2.8c2.1,0.9,2.5,1.1,5,2.2c2.5,1.1,3,1.3,4.9,2.2c2.9,1.3,5.2,2.3,7.1,3.1
		c4.7,2.1,6,2.7,7.2,3.2c1.5,0.7,4.9,2.1,5.8,2.6c0.4,0.2,1.3,0.6,2,0.9c0.7,0.3,1.3,0.6,1.4,0.7
		C431.9,100.1,430.5,102.7,429.3,104.5z"/>
</g>
</svg>
